<svg xmlns="http://www.w3.org/2000/svg" version="1.1" xmlns:xlink="http://www.w3.org/1999/xlink" xmlns:svgjs="http://svgjs.dev/svgjs" width="2000" height="166" viewBox="0 0 2000 166"><g transform="matrix(1,0,0,1,-1.2121211518897326,-0.709982862165603)"><svg viewBox="0 0 396 33" data-background-color="#cf5260" preserveAspectRatio="xMidYMid meet" height="166" width="2000" xmlns="http://www.w3.org/2000/svg" xmlns:xlink="http://www.w3.org/1999/xlink"><g id="tight-bounds" transform="matrix(1,0,0,1,0.24000001192581522,0.14114117139436644)"><svg viewBox="0 0 395.52 32.71771765721125" height="32.71771765721125" width="395.52"><g><svg viewBox="0 0 437.9345251432092 36.22627969756372" height="32.71771765721125" width="395.52"><g transform="matrix(1,0,0,1,0,5.006671072528707)"><svg viewBox="0 0 395.52000000000004 26.212937552506304" height="26.212937552506304" width="395.52000000000004"><g id="textblocktransform"><svg viewBox="0 0 395.52000000000004 26.212937552506304" height="26.212937552506304" width="395.52000000000004" id="textblock"><g><svg viewBox="0 0 395.52000000000004 26.212937552506304" height="26.212937552506304" width="395.52000000000004"><g transform="matrix(1,0,0,1,0,0)"><svg width="395.52000000000004" viewBox="0.9000000357627869 -34.900001525878906 535.5999755859375 35.5" height="26.212937552506304" data-palette-color="#f0f0f0"><path d="M10 0L10-29.75 0.9-29.75 0.9-34.3 24.1-34.3 24.1-29.75 15.05-29.75 15.05 0 10 0ZM22 0L32.95-34.3 39.2-34.3 50.15 0 44.8 0 42.55-7.35 29.25-7.35 27 0 22 0ZM30.6-11.9L41.15-11.9 36.85-25.95Q36.45-27.25 36-30L36-30 35.8-30Q35.35-27.15 34.95-25.95L34.95-25.95 30.6-11.9ZM53.45 0L53.45-34.3 58.45-34.3 58.45-19.8 71.34-19.8 71.34-34.3 76.34-34.3 76.34 0 71.34 0 71.34-15.3 58.45-15.3 58.45 0 53.45 0ZM79.64 0L90.59-34.3 96.84-34.3 107.79 0 102.44 0 100.19-7.35 86.89-7.35 84.64 0 79.64 0ZM88.24-11.9L98.79-11.9 94.49-25.95Q94.09-27.25 93.64-30L93.64-30 93.44-30Q92.99-27.15 92.59-25.95L92.59-25.95 88.24-11.9ZM111.09 0L111.09-34.3 125.04-34.3Q130.04-34.3 132.72-31.68 135.39-29.05 135.39-24.7L135.39-24.7Q135.39-21.55 133.79-19.2 132.19-16.85 129.39-15.85L129.39-15.85 136.19 0 130.64 0 124.49-14.9 116.09-14.9 116.09 0 111.09 0ZM116.09-19.4L124.69-19.4Q127.19-19.4 128.62-20.85 130.04-22.3 130.04-24.7L130.04-24.7Q130.04-27.05 128.69-28.4 127.34-29.75 124.74-29.75L124.74-29.75 116.09-29.75 116.09-19.4ZM146.69 0L157.64-34.3 163.89-34.3 174.84 0 169.49 0 167.24-7.35 153.94-7.35 151.69 0 146.69 0ZM155.29-11.9L165.84-11.9 161.54-25.95Q161.14-27.25 160.69-30L160.69-30 160.49-30Q160.04-27.15 159.64-25.95L159.64-25.95 155.29-11.9ZM177.93 0L177.93-34.3 191.48-34.3Q194.08-34.3 196.13-33.25 198.18-32.2 199.36-30.28 200.53-28.35 200.53-25.85L200.53-25.85Q200.53-23 199.06-20.9 197.58-18.8 195.28-18L195.28-18 195.28-17.8Q197.93-17 199.63-14.68 201.33-12.35 201.33-9.15L201.33-9.15Q201.33-6.35 200.01-4.28 198.68-2.2 196.43-1.1 194.18 0 191.48 0L191.48 0 177.93 0ZM182.98-19.8L190.08-19.8Q192.43-19.8 193.86-21.28 195.28-22.75 195.28-24.85L195.28-24.85Q195.28-27.25 193.98-28.5 192.68-29.75 190.38-29.75L190.38-29.75 182.98-29.75 182.98-19.8ZM182.98-4.55L190.78-4.55Q193.13-4.55 194.61-5.93 196.08-7.3 196.08-9.8L196.08-9.8Q196.08-12.1 194.56-13.7 193.03-15.3 190.48-15.3L190.48-15.3 182.98-15.3 182.98-4.55ZM205.98 0L205.98-34.3 219.53-34.3Q222.13-34.3 224.18-33.25 226.23-32.2 227.41-30.28 228.58-28.35 228.58-25.85L228.58-25.85Q228.58-23 227.11-20.9 225.63-18.8 223.33-18L223.33-18 223.33-17.8Q225.98-17 227.68-14.68 229.38-12.35 229.38-9.15L229.38-9.15Q229.38-6.35 228.06-4.28 226.73-2.2 224.48-1.1 222.23 0 219.53 0L219.53 0 205.98 0ZM211.03-19.8L218.13-19.8Q220.48-19.8 221.91-21.28 223.33-22.75 223.33-24.85L223.33-24.85Q223.33-27.25 222.03-28.5 220.73-29.75 218.43-29.75L218.43-29.75 211.03-29.75 211.03-19.8ZM211.03-4.55L218.83-4.55Q221.18-4.55 222.66-5.93 224.13-7.3 224.13-9.8L224.13-9.8Q224.13-12.1 222.61-13.7 221.08-15.3 218.53-15.3L218.53-15.3 211.03-15.3 211.03-4.55ZM234.23 0L234.23-34.3 255.58-34.3 255.58-29.75 239.23-29.75 239.23-19.8 253.38-19.8 253.38-15.3 239.23-15.3 239.23-4.55 255.88-4.55 255.88 0 234.23 0ZM271.73 0.6Q266.63 0.6 263.38-1.98 260.13-4.55 260.13-9.8L260.13-9.8 260.18-10.85 265.38-10.85 265.33-9.85Q265.33-7 267.08-5.45 268.83-3.9 271.73-3.9L271.73-3.9Q274.93-3.9 276.6-5.28 278.28-6.65 278.28-9.1L278.28-9.1Q278.28-10.9 277.3-12.05 276.33-13.2 274.85-13.88 273.38-14.55 270.83-15.35L270.83-15.35Q267.63-16.4 265.63-17.4 263.63-18.4 262.23-20.38 260.83-22.35 260.83-25.55L260.83-25.55Q260.83-30.1 263.95-32.5 267.08-34.9 271.88-34.9L271.88-34.9Q276.68-34.9 279.73-32.45 282.78-30 282.78-25.1L282.78-25.1 282.78-24.5 277.58-24.5 277.58-25.15Q277.58-27.6 276-29 274.43-30.4 271.93-30.4L271.93-30.4Q269.28-30.4 267.68-29.25 266.08-28.1 266.08-25.95L266.08-25.95Q266.08-24.35 267.03-23.28 267.98-22.2 269.43-21.55 270.88-20.9 273.33-20.15L273.33-20.15Q276.58-19.1 278.6-18.1 280.63-17.1 282.08-15.15 283.53-13.2 283.53-10.05L283.53-10.05Q283.53-4.5 280.35-1.95 277.18 0.6 271.73 0.6L271.73 0.6ZM294.92 0L305.87-34.3 312.12-34.3 323.07 0 317.72 0 315.47-7.35 302.17-7.35 299.92 0 294.92 0ZM303.52-11.9L314.07-11.9 309.77-25.95Q309.37-27.25 308.92-30L308.92-30 308.72-30Q308.27-27.15 307.87-25.95L307.87-25.95 303.52-11.9ZM326.37 0L326.37-34.3 331.37-34.3 331.37-4.65 345.57-4.65 345.57 0 326.37 0ZM346.47 0L357.42-34.3 363.67-34.3 374.62 0 369.27 0 367.02-7.35 353.72-7.35 351.47 0 346.47 0ZM355.07-11.9L365.62-11.9 361.32-25.95Q360.92-27.25 360.47-30L360.47-30 360.27-30Q359.82-27.15 359.42-25.95L359.42-25.95 355.07-11.9ZM387.31 0L387.31-34.3 408.66-34.3 408.66-29.75 392.31-29.75 392.31-19.8 406.46-19.8 406.46-15.3 392.31-15.3 392.31-4.55 408.96-4.55 408.96 0 387.31 0ZM414.66 0L414.66-34.3 425.46-34.3Q431.76-34.3 435.23-30.05 438.71-25.8 438.71-17.65L438.71-17.65Q438.71-9 435.23-4.5 431.76 0 425.46 0L425.46 0 414.66 0ZM419.66-4.55L425.01-4.55Q429.01-4.55 431.23-7.55 433.46-10.55 433.46-16.4L433.46-16.4 433.46-18.9Q433.46-24.25 431.23-27 429.01-29.75 425.01-29.75L425.01-29.75 419.66-29.75 419.66-4.55ZM444.26 0L444.26-34.3 455.06-34.3Q461.36-34.3 464.83-30.05 468.31-25.8 468.31-17.65L468.31-17.65Q468.31-9 464.83-4.5 461.36 0 455.06 0L455.06 0 444.26 0ZM449.26-4.55L454.61-4.55Q458.61-4.55 460.83-7.55 463.06-10.55 463.06-16.4L463.06-16.4 463.06-18.9Q463.06-24.25 460.83-27 458.61-29.75 454.61-29.75L454.61-29.75 449.26-29.75 449.26-4.55ZM473.7 0L473.7-34.3 478.7-34.3 478.7 0 473.7 0ZM485.25 0L485.25-34.3 489.65-34.3 501.7-13.6Q502.35-12.5 503.6-9.45L503.6-9.45 503.75-9.5 503.65-13.5 503.65-34.3 508.15-34.3 508.15 0 503.85 0 491.7-20.9Q491.05-22.1 489.75-25.1L489.75-25.1 489.55-25Q489.75-22.15 489.75-21L489.75-21 489.75 0 485.25 0ZM514.85 0L514.85-34.3 536.2-34.3 536.2-29.75 519.85-29.75 519.85-19.8 534-19.8 534-15.3 519.85-15.3 519.85-4.55 536.5-4.55 536.5 0 514.85 0Z" opacity="1" transform="matrix(1,0,0,1,0,0)" fill="#f0f0f0" class="wordmark-text-0" data-fill-palette-color="primary" id="text-0"></path></svg></g></svg></g></svg></g></svg></g><g transform="matrix(1,0,0,1,401.7082454456455,0)"><svg viewBox="0 0 36.22627969756372 36.22627969756372" height="36.22627969756372" width="36.22627969756372"><g data-palette-color="#f0f0f0"><rect width="9.90184978400075" height="36.22627969756372" fill="#f0f0f0" stroke="transparent" data-fill-palette-color="accent" x="0" fill-opacity="1"></rect><rect width="9.90184978400075" height="36.22627969756372" fill="#f0f0f0" stroke="transparent" data-fill-palette-color="accent" x="12.075426565854574" fill-opacity="0.75"></rect><rect width="9.90184978400075" height="36.22627969756372" fill="#f0f0f0" stroke="transparent" data-fill-palette-color="accent" x="24.150853131709148" fill-opacity="0.5"></rect></g></svg></g></svg></g><defs></defs></svg><rect width="395.52" height="32.71771765721125" fill="none" stroke="none" visibility="hidden"></rect></g></svg></g></svg>